<svg version="1.1" id="Layer_1" xmlns="http://www.w3.org/2000/svg" xmlns:xlink="http://www.w3.org/1999/xlink" x="0px" y="0px"
	 width="100%" viewBox="0 0 320 336" enable-background="new 0 0 320 336" xml:space="preserve">
<path fill="#000000" opacity="1.000000" stroke="none" 
	d="
M76.664566,225.999908 
	C76.663712,175.024185 76.660103,124.548477 76.665268,74.072769 
	C76.666237,64.642204 78.641129,62.659370 88.064651,62.657555 
	C123.880745,62.650642 159.696838,62.647717 195.512924,62.671837 
	C201.550919,62.675903 204.742737,65.039474 205.290207,69.701851 
	C205.993683,75.692764 202.434647,79.330513 195.608902,79.338417 
	C164.124130,79.374855 132.639313,79.357719 101.154518,79.358604 
	C93.352982,79.358826 93.349258,79.356781 93.348648,87.341331 
	C93.346977,109.164162 93.471245,130.988235 93.250618,152.808838 
	C93.203896,157.429977 94.571663,158.828308 99.186226,158.739517 
	C113.007576,158.473572 126.837631,158.671387 140.664276,158.661453 
	C144.820831,158.658463 147.849915,160.486771 149.005981,164.456650 
	C150.121613,168.287674 149.091064,171.690857 145.621765,174.112213 
	C143.695267,175.456757 141.525436,175.345932 139.367889,175.348053 
	C126.041000,175.361160 112.709755,175.553757 99.389458,175.258240 
	C94.452850,175.148697 93.238602,176.904755 93.258858,181.595291 
	C93.420059,218.909958 93.356781,256.225647 93.336388,293.541016 
	C93.333160,299.433014 90.834229,302.771088 86.230133,303.282288 
	C80.462402,303.922699 76.699348,300.353699 76.685921,293.966217 
	C76.638649,271.477539 76.665886,248.988693 76.664566,225.999908 
z"/>
<path fill="#000000" opacity="1.000000" stroke="none" 
	d="
M280.764954,110.209274 
	C267.012817,111.844963 255.282440,108.617996 245.724289,98.787117 
	C234.239029,86.974144 231.513657,68.925713 239.116028,53.907417 
	C246.998978,38.334854 263.501740,31.233116 277.501434,33.018318 
	C295.719299,35.341408 309.158691,47.584862 312.002380,64.254959 
	C315.961823,87.465698 301.826691,105.854469 280.764954,110.209274 
M261.712585,89.853622 
	C263.338348,90.683922 264.898041,91.696136 266.600830,92.314278 
	C275.936981,95.703468 286.530151,92.039970 291.952026,83.642883 
	C297.591644,74.908516 296.662537,64.406776 289.595032,57.002396 
	C282.579468,49.652431 271.695160,47.980923 263.045593,52.925156 
	C249.387314,60.732445 248.435104,78.741447 261.712585,89.853622 
z"/>
</svg>