<?xml version="1.0" encoding="iso-8859-1"?>
<!-- Uploaded to: SVG Repo, www.svgrepo.com, Generator: SVG Repo Mixer Tools -->
<svg fill="#000000" height="800px" width="800px" version="1.1" id="Layer_1" xmlns="http://www.w3.org/2000/svg" xmlns:xlink="http://www.w3.org/1999/xlink" 
	 viewBox="0 0 441.122 441.122" xml:space="preserve">
<g>
	<g>
		<g>
			<path d="M273.796,268.526V53.235C273.796,23.881,249.914,0,220.56,0s-53.235,23.881-53.235,53.235V268.53
				c-26.609,18.183-42.311,48.963-41.218,81.341c1.636,48.542,40.887,88.564,89.358,91.115c1.726,0.091,3.446,0.136,5.159,0.136
				c24.326,0,47.231-9.105,64.975-25.94c19.004-18.031,29.47-42.383,29.47-68.57C315.069,315.067,299.721,286.185,273.796,268.526z
				 M275.275,404.3c-15.977,15.159-36.927,22.874-59.021,21.706c-40.766-2.145-73.778-35.81-75.155-76.641
				c-0.959-28.436,13.478-55.409,37.676-70.394c2.208-1.367,3.551-3.779,3.551-6.376V53.235c0-21.083,17.152-38.235,38.235-38.235
				s38.235,17.152,38.235,38.235v219.359c0,2.597,1.343,5.009,3.551,6.376c23.621,14.627,37.722,39.913,37.722,67.64
				C300.069,368.642,291.264,389.13,275.275,404.3z"/>
			<path d="M286.817,325.48c-1.252-3.948-5.47-6.133-9.417-4.882c-3.948,1.252-6.134,5.468-4.882,9.417
				c1.693,5.338,2.551,10.922,2.551,16.596c0,14.561-5.669,28.25-15.964,38.545c-10.993,10.994-25.84,16.709-41.539,15.884
				c-27.925-1.469-50.539-24.538-51.482-52.518c-0.658-19.509,9.248-38.015,25.851-48.296l11.838-7.331
				c2.208-1.367,3.552-3.779,3.552-6.376V161h26.471v125.519c0,2.597,1.343,5.009,3.551,6.376l11.838,7.331
				c3.522,2.181,8.144,1.094,10.325-2.428c2.181-3.521,1.094-8.144-2.428-10.325l-8.287-5.132V153.5c0-4.142-3.358-7.5-7.5-7.5
				h-41.471c-4.142,0-7.5,3.358-7.5,7.5v128.842l-8.287,5.131c-21.16,13.103-33.784,36.689-32.946,61.555
				c1.203,35.691,30.056,65.117,65.687,66.992c1.26,0.066,2.533,0.1,3.787,0.1c18.565,0,36.019-7.229,49.145-20.357
				c13.128-13.128,20.358-30.584,20.358-49.152C290.069,339.396,288.975,332.288,286.817,325.48z"/>
			<path d="M269.054,315.409c1.97,0,3.9-0.8,5.3-2.19c1.4-1.4,2.2-3.33,2.2-5.31c0-1.97-0.8-3.91-2.2-5.3c-1.4-1.4-3.33-2.2-5.3-2.2
				c-1.98,0-3.91,0.8-5.31,2.2c-1.39,1.39-2.19,3.33-2.19,5.3c0,1.98,0.8,3.91,2.19,5.31
				C265.143,314.608,267.074,315.409,269.054,315.409z"/>
		</g>
	</g>
</g>
</svg>