<?xml version="1.0" encoding="iso-8859-1"?>
<!-- Uploaded to: SVG Repo, www.svgrepo.com, Generator: SVG Repo Mixer Tools -->
<svg fill="#000000" height="800px" width="800px" version="1.1" id="Layer_1" xmlns="http://www.w3.org/2000/svg" xmlns:xlink="http://www.w3.org/1999/xlink" 
	 viewBox="0 0 441.122 441.122" xml:space="preserve">
<g>
	<g>
		<g>
			<path d="M273.796,268.526V53.235C273.796,23.881,249.914,0,220.56,0s-53.235,23.881-53.235,53.235V268.53
				c-26.609,18.183-42.311,48.963-41.218,81.341c1.636,48.542,40.887,88.564,89.358,91.115c1.726,0.091,3.446,0.136,5.159,0.136
				c24.326,0,47.231-9.105,64.975-25.94c19.004-18.031,29.47-42.383,29.47-68.57C315.069,315.067,299.721,286.185,273.796,268.526z
				 M275.275,404.3c-15.978,15.159-36.93,22.874-59.021,21.706c-40.766-2.145-73.778-35.81-75.155-76.641
				c-0.959-28.436,13.478-55.409,37.676-70.394c2.208-1.367,3.551-3.779,3.551-6.376V53.235c0-21.083,17.152-38.235,38.235-38.235
				s38.235,17.152,38.235,38.235v219.359c0,2.597,1.343,5.009,3.551,6.376c23.621,14.627,37.722,39.913,37.722,67.64
				C300.069,368.642,291.264,389.13,275.275,404.3z"/>
			<path d="M286.817,325.48c-1.252-3.948-5.469-6.132-9.417-4.882c-3.948,1.252-6.134,5.468-4.882,9.417
				c1.693,5.339,2.552,10.923,2.552,16.596c0,14.561-5.669,28.25-15.964,38.545c-10.993,10.994-25.838,16.717-41.539,15.884
				c-27.925-1.469-50.539-24.538-51.482-52.518c-0.658-19.509,9.248-38.015,25.851-48.296l11.838-7.331
				c2.208-1.367,3.552-3.779,3.552-6.376v-49.42h26.471v49.42c0,2.597,1.343,5.009,3.551,6.376l11.838,7.331
				c3.522,2.181,8.144,1.094,10.325-2.428c2.181-3.521,1.094-8.144-2.428-10.325l-8.287-5.132v-52.743c0-4.142-3.358-7.5-7.5-7.5
				h-41.471c-4.142,0-7.5,3.358-7.5,7.5v52.743l-8.287,5.131c-21.16,13.103-33.784,36.689-32.945,61.555
				c1.203,35.691,30.056,65.117,65.687,66.992c1.26,0.066,2.533,0.1,3.787,0.1c18.565,0,36.019-7.229,49.145-20.357
				c13.128-13.128,20.358-30.584,20.358-49.152C290.07,339.397,288.975,332.289,286.817,325.48z"/>
			<path d="M264.841,314.116c-0.082-0.054-0.132-0.087,0.043,0.032c0.186,0.123,0.117,0.075,0.026,0.014
				c2.85,1.86,6.64,1.571,9.176-0.694c2.209-1.974,3.019-5.201,2.057-7.993c-0.99-2.873-3.691-4.897-6.727-5.05
				c-3.186-0.16-6.191,1.794-7.346,4.759C260.806,308.427,261.996,312.146,264.841,314.116z"/>
		</g>
	</g>
</g>
</svg>